<svg version="1.2" xmlns="http://www.w3.org/2000/svg" viewBox="0 0 500 500" width="500" height="500"><style>.a{fill:#14110f}.b{fill:#d9c5b2}</style><path class="a" d="m0 250c0-138.1 111.9-250 250-250 138.1 0 250 111.9 250 250 0 138.1-111.9 250-250 250-138.1 0-250-111.9-250-250z"/><path class="b" d="m199 283.2l-0.3-20.7h3.4l47.7-48.6h20.8l-50.9 51.4h-1.4zm-15.6 39.8v-145.5h16.7v145.5zm69.3 0l-42.6-54 12-11.6 51.9 65.6zm51.7 1.1q-5.2 0-9-3.7-3.8-3.8-3.8-9 0-5.3 3.8-9.1 3.8-3.7 9-3.7 5.3 0 9.1 3.7 3.7 3.8 3.7 9.1 0 3.4-1.8 6.3-1.7 3-4.6 4.7-2.8 1.7-6.4 1.7z"/><path class="b" d="m183 327h91v5h-91z"/></svg>